<svg preserveAspectRatio="none" width="100%" height="100%" overflow="visible" style="display: block;" viewBox="0 0 28 28" fill="none" xmlns="http://www.w3.org/2000/svg">
<path id="Vector" d="M6.328 14L3.192 17.136L0 14L3.192 10.808L6.328 14ZM14 6.328L19.432 11.76L22.624 8.568L14 0L5.432 8.568L8.624 11.76L14 6.328ZM24.808 10.808L21.672 14L24.864 17.192L28 14L24.808 10.808ZM14 21.672L8.568 16.24L5.376 19.432L14 28L22.568 19.432L19.432 16.24L14 21.672ZM14 17.136L17.192 13.944L14 10.808L10.808 14L14 17.136Z" fill="var(--fill-0, white)"/>
</svg>
