<svg preserveAspectRatio="none" width="100%" height="100%" overflow="visible" style="display: block;" viewBox="0 0 6.1358 7.79643" fill="none" xmlns="http://www.w3.org/2000/svg">
<path id="Vector" d="M3.54397 7.79643H0V0H3.40221C5.05607 0 6.01766 0.85333 6.01766 2.19044C6.01766 3.05497 5.39865 3.61489 4.97101 3.80079C5.48134 4.02028 6.1358 4.51302 6.1358 5.55224C6.1358 7.00806 5.0537 7.79643 3.54397 7.79643ZM3.2699 1.35726H1.65149V3.15351H3.2699C3.97161 3.15351 4.36381 2.79292 4.36381 2.25539C4.36381 1.7201 3.97161 1.35726 3.2699 1.35726ZM3.37622 4.52198H1.65149V6.43917H3.37622C4.12518 6.43917 4.48194 6.00243 4.48194 5.47609C4.48194 4.94976 4.12518 4.52422 3.37622 4.52422V4.52198Z" fill="var(--fill-0, white)"/>
</svg>
