<svg preserveAspectRatio="none" width="100%" height="100%" overflow="visible" style="display: block;" viewBox="0 0 46 12" fill="none" xmlns="http://www.w3.org/2000/svg">
<g id="Vector">
<path d="M42.0198 5.90813L39.6019 2.241H41.1143L41.9999 3.55359C42.2984 4.00443 42.5472 4.42529 42.8158 4.92625L44.5074 2.241H45.9901L43.6119 5.89813L46 9.56526H44.4975L43.6815 8.35291C43.3631 7.86195 43.1044 7.4211 42.8158 6.89006L41.0447 9.56526H39.5521L42.0198 5.90813Z" fill="var(--fill-0, white)"/>
<path d="M37.0101 9.69553C35.5474 9.69553 34.5226 8.62345 34.5226 7.09044C34.5226 5.53744 35.5275 4.46536 36.9703 4.46536C38.443 4.46536 39.3783 5.45729 39.3783 7.00029V7.37098L35.6768 7.38103C35.7663 8.25272 36.2241 8.69357 37.03 8.69357C37.6967 8.69357 38.1345 8.43307 38.2738 7.96214H39.3982C39.1893 9.04426 38.2937 9.69553 37.0101 9.69553ZM36.9803 5.46729C36.2639 5.46729 35.826 5.85806 35.7066 6.59948H38.1743C38.1743 5.91817 37.7067 5.46729 36.9803 5.46729Z" fill="var(--fill-0, white)"/>
<path d="M28.4204 6.98021C28.4204 5.53744 29.3557 4.45532 30.7587 4.45532C31.495 4.45532 32.0722 4.76594 32.3607 5.29694L32.4304 4.61563H33.5548V9.31476C33.5548 10.968 32.5697 12 30.9776 12C29.5647 12 28.5995 11.1884 28.4502 9.86584H29.6642C29.7438 10.5071 30.2313 10.8878 30.9776 10.8878C31.8134 10.8878 32.3508 10.3568 32.3508 9.53518V8.7136C32.0423 9.17449 31.4353 9.46507 30.7289 9.46507C29.3358 9.46507 28.4204 8.41303 28.4204 6.98021ZM29.6443 6.95018C29.6443 7.78179 30.1716 8.40299 30.9677 8.40299C31.8035 8.40299 32.3209 7.81183 32.3209 6.95018C32.3209 6.10852 31.8134 5.5274 30.9677 5.5274C30.1617 5.5274 29.6443 6.1386 29.6443 6.95018Z" fill="var(--fill-0, white)"/>
<path d="M24.5582 9.69553C23.1353 9.69553 22.2497 8.64345 22.2497 7.11048C22.2497 5.56748 23.1452 4.46536 24.6278 4.46536C25.3144 4.46536 25.9214 4.7559 26.2298 5.24686V2.11078H27.4338V9.56526H26.3194L26.2398 8.79376C25.9413 9.36488 25.3044 9.69553 24.5582 9.69553ZM24.8268 8.57333C25.6726 8.57333 26.2199 7.96214 26.2199 7.07041C26.2199 6.17867 25.6726 5.55748 24.8268 5.55748C23.981 5.55748 23.4636 6.18871 23.4636 7.07041C23.4636 7.95214 23.981 8.57333 24.8268 8.57333Z" fill="var(--fill-0, white)"/>
<path d="M19.1984 9.69553C17.7357 9.69553 16.7108 8.62345 16.7108 7.09044C16.7108 5.53744 17.7158 4.46536 19.1586 4.46536C20.6313 4.46536 21.5667 5.45729 21.5667 7.00029V7.37098L17.8651 7.38103C17.9546 8.25272 18.4124 8.69357 19.2183 8.69357C19.885 8.69357 20.3228 8.43307 20.4621 7.96214H21.5866C21.3776 9.04426 20.482 9.69553 19.1984 9.69553ZM19.1686 5.46729C18.4522 5.46729 18.0143 5.85806 17.8949 6.59948H20.3626C20.3626 5.91817 19.895 5.46729 19.1686 5.46729Z" fill="var(--fill-0, white)"/>
<path fill-rule="evenodd" clip-rule="evenodd" d="M13.7303 11.9733L6.86514 0L0 11.9733H10.8228H13.7303ZM1.45276 9.44372L8.31472 2.53823L10.8228 11.9733L1.45276 9.44372Z" fill="var(--fill-0, white)"/>
</g>
</svg>
