<svg preserveAspectRatio="none" width="100%" height="100%" overflow="visible" style="display: block;" viewBox="0 0 13.5 19.6361" fill="none" xmlns="http://www.w3.org/2000/svg">
<path id="Vector" fill-rule="evenodd" clip-rule="evenodd" d="M8.02883 1.54397C8.74255 1.54397 9.41202 1.63965 10.0319 1.81709C9.425 0.402753 8.16501 0 6.76274 0C5.35772 0 4.09553 0.404336 3.49006 1.82542C4.10535 1.64174 4.77193 1.54397 5.48321 1.54397H8.02883ZM5.31996 2.96391C1.93093 2.96391 0 5.63003 0 8.91884V12.2973C0 12.6262 0.274735 12.8864 0.613636 12.8864H12.8864C13.2252 12.8864 13.5 12.6262 13.5 12.2973V8.91884C13.5 5.63003 11.2546 2.96391 7.86558 2.96391H5.31996ZM6.7452 8.94807C7.93136 8.94807 8.89293 7.98649 8.89293 6.80034C8.89293 5.61418 7.93136 4.65262 6.7452 4.65262C5.55905 4.65262 4.59747 5.61418 4.59747 6.80034C4.59747 7.98649 5.55905 8.94807 6.7452 8.94807ZM0 14.8721C0 14.5433 0.274735 14.2766 0.613636 14.2766H12.8864C13.2252 14.2766 13.5 14.5433 13.5 14.8721V18.4451C13.5 19.1029 12.9506 19.6361 12.2727 19.6361H1.22727C0.549468 19.6361 0 19.1029 0 18.4451V14.8721Z" fill="var(--fill-0, #E33E3F)"/>
</svg>
