<svg preserveAspectRatio="none" width="100%" height="100%" overflow="visible" style="display: block;" viewBox="0 0 36 36" fill="none" xmlns="http://www.w3.org/2000/svg">
<g id="Vector">
<path d="M36 18C36 27.9411 27.9411 36 18 36C8.05887 36 0 27.9411 0 18C0 8.05887 8.05887 0 18 0C27.9411 0 36 8.05887 36 18Z" fill="#0A0A0A"/>
<path d="M27.5804 22.9642C26.9017 22.9642 26.2814 22.5579 26.0357 21.9523L22.2094 12.5147C21.5349 10.8615 19.8403 9.75 17.9875 9.75C16.1347 9.75 14.4402 10.8615 13.7698 12.5147L9.94346 21.9523C9.69781 22.5579 9.07742 22.9642 8.39877 22.9642H6.75V24H17.1923C18.3123 24 19.3407 23.3268 19.7487 22.3268L20.8396 19.6338C21.0894 19.0203 21.6973 18.6219 22.3843 18.6219C23.0713 18.6219 23.6833 19.0282 23.9289 19.6338L25.0198 22.3268C25.4237 23.3268 26.4521 24 27.5762 24H29.25V22.9642H27.5762H27.5804ZM10.5721 22.9642C10.7262 22.773 10.8594 22.5579 10.9511 22.3268L14.7774 12.8892C15.2854 11.6304 16.576 10.7858 17.9875 10.7858C19.399 10.7858 20.6855 11.6304 21.1976 12.8892L21.6348 13.9688C21.1851 13.7776 20.6939 13.6661 20.1859 13.6661C18.6745 13.6661 17.3463 14.5385 16.7967 15.885L14.3402 21.9484C14.0946 22.5539 13.4742 22.9602 12.7955 22.9602H10.5721V22.9642ZM19.832 19.2593L18.7411 21.9523C18.4955 22.5579 17.8751 22.9642 17.1964 22.9642H14.9731C15.1271 22.773 15.2604 22.5579 15.352 22.3268L17.8126 16.2635C18.1957 15.3154 19.1325 14.7058 20.1901 14.7058C21.2476 14.7058 22.1927 15.3313 22.5675 16.2635L23.1462 17.6937C22.9006 17.6259 22.6466 17.5861 22.3843 17.5861C21.2434 17.5861 20.24 18.2435 19.8278 19.2593H19.832Z" fill="var(--fill-0, #4C9AF8)"/>
</g>
</svg>
