<?xml version="1.0" encoding="UTF-8"?>
<svg id="_레이어_1" xmlns="http://www.w3.org/2000/svg" version="1.1" viewBox="0 0 487.25 68.63">
  <!-- Generator: Adobe Illustrator 30.2.1, SVG Export Plug-In . SVG Version: 2.1.1 Build 1)  -->
  <defs>
    <style>
      .st0 {
        fill: #fff;
      }

      .st1 {
        fill: #c9fe5d;
      }
    </style>
  </defs>
  <path class="st1" d="M39.35,35.79c.16.38.54.68.85.95,5.22,4.67,11.63,8.7,16.78,13.44,5.53,5.08,6.79,12.25,2.17,18.45L15.74,34.33c-3.9-4.36-1.38-11.22,4.52-11.73,7.65-.66,16.37.7,24.01.02,3.87-.35,6.03-4.89,3.23-7.8-.32-.33-1.92-1.32-2.28-1.32H0C-.04,7.41,4.17,2.1,10.03.62c11.45.1,24.32-1.19,35.68-.32,14.25,1.09,21.38,18.49,11.87,29.38-2.37,2.71-7.73,6.11-11.4,6.11h-6.84,0Z"/>
  <path class="st0" d="M336.71,11.1l36.95,37.87-.12-37.87h5.76v44.59h-6.36c-12.31-12.52-24.33-25.32-36.83-37.64v37.64h-5.52V11.1h6.12,0ZM486.05,11.1l-24.69,22.14,25.89,22.45h-8.76l-20.87-18.7-.76-.45c-.24-.02-1.25.81-1.52,1.04-6.91,5.84-13.33,12.29-20.27,18.1h-8.52l26.15-22.65-24.71-21.93h8.76l20.36,18.68,20.43-18.68h8.52-.01ZM323.16,11.1v27.69c0,.5-.77,2.92-1.02,3.54-4.95,12.54-32.57,12.59-36.77-.78-.21-.66-.84-2.95-.84-3.48V11.1h-5.76v13.66l-2.34-4.49c-9.75-14.3-42.22-13.52-48.87,3.05-1.28,3.2-1.75,6.99-1.82,10.42,0,.27.67,2.59-.1,2.28l-1.96-1.87-3.92-2.08c6.27-2.08,8.64-8.63,5.93-14.56-1.83-4.01-8.17-6.04-12.29-6.42h-86.97v42.19l-12.47-15.95c-.08-.53.07-.28.36-.35,8.7-2.02,13.21-7.83,10.74-16.97-1.27-4.7-7.72-8.92-12.42-8.92h-37.31v44.59h5.76v-18.22h25.79l14.2,18.22h92.55c4.53-.67,10.68-2.37,12.93-6.74l1.46-4.29c3.17,6.53,10.68,10.18,17.59,11.43,12.59,2.28,29.9-1.42,33.51-15.51,4.75,19.82,38.45,21.39,47.51,4.8.98-1.79,2.27-5.31,2.27-7.32V11.1h-5.76.02ZM81.09,32.68V15.9h31.31c1.44,0,4.96,2.01,5.88,3.24,2.07,2.75,1.93,8.29-.48,10.78-1.02,1.06-4.21,2.76-5.64,2.76,0,0-31.07,0-31.07,0ZM183.05,15.9h30.35c1.55,0,4.95,1.4,6.01,2.63,2.06,2.4,1.8,6.92-.49,9.12-1.09,1.04-4.29,2.4-5.76,2.4h-30.11v-14.14h0ZM177.53,50.78s-.33.36-.36.36h-44.98v-16.06h40.78v-4.79h-40.78v-14.38h45.34v34.88h0ZM221.79,45.38c-1.39,4.41-6.23,5.53-10.3,5.77-9.03.52-18.53-.42-27.61,0-.25.05-.83-.17-.83-.37v-15.58c0-.07.28-.24.36-.36h29.27c5.82,0,11.07,4.36,9.11,10.55h0ZM273.42,38.96c-3.54,17.35-40.11,17.82-41.67-2.81-.99-13.06,5.52-19.95,18.42-20.9,15.75-1.16,26.66,6.99,23.25,23.71ZM409.88,11.1h-28.19v44.59h28.19c10.37-1.2,20.68-6.31,22.56-17.49,2.73-16.23-7.32-25.3-22.56-27.09h0ZM423.2,45.03c-8.22,8.98-24.88,5.31-35.75,6.11V15.9c7.1.36,14.66-.48,21.71,0,4.56.31,10.9,2.41,14.03,5.88,4.96,5.51,5.04,17.76.01,23.25Z"/>
</svg>